<?xml version="1.0" encoding="UTF-8" standalone="no"?>
<!DOCTYPE svg PUBLIC "-//W3C//DTD SVG 1.1//EN" "http://www.w3.org/Graphics/SVG/1.1/DTD/svg11.dtd">
<svg width="100%" height="100%" viewBox="0 0 36 36" version="1.1" xmlns="http://www.w3.org/2000/svg" xmlns:xlink="http://www.w3.org/1999/xlink" xml:space="preserve" xmlns:serif="http://www.serif.com/" style="fill-rule:evenodd;clip-rule:evenodd;stroke-linejoin:round;stroke-miterlimit:2;">
    <g transform="matrix(0.769051,0,0,0.473067,-6.25668,2.44346)">
        <path d="M54.947,9.546C54.947,9.021 54.684,8.595 54.361,8.595L8.721,8.595C8.398,8.595 8.136,9.021 8.136,9.546L8.136,13.985C8.136,14.51 8.398,14.936 8.721,14.936L54.361,14.936C54.684,14.936 54.947,14.51 54.947,13.985L54.947,9.546Z" style="fill:white;"/>
    </g>
    <g transform="matrix(0.769051,0,0,0.473067,-6.25668,12.4342)">
        <path d="M54.947,9.546C54.947,9.021 54.684,8.595 54.361,8.595L8.721,8.595C8.398,8.595 8.136,9.021 8.136,9.546L8.136,13.985C8.136,14.51 8.398,14.936 8.721,14.936L54.361,14.936C54.684,14.936 54.947,14.51 54.947,13.985L54.947,9.546Z" style="fill:white;"/>
    </g>
    <g transform="matrix(0.769051,0,0,0.473067,-6.25668,22.4087)">
        <path d="M54.947,9.546C54.947,9.021 54.684,8.595 54.361,8.595L8.721,8.595C8.398,8.595 8.136,9.021 8.136,9.546L8.136,13.985C8.136,14.51 8.398,14.936 8.721,14.936L54.361,14.936C54.684,14.936 54.947,14.51 54.947,13.985L54.947,9.546Z" style="fill:white;"/>
    </g>
</svg>
